# AST/ASF file generated using VICON BodyLanguage
# -----------------------------------------------
:version 1.10
:name VICON
:units
  mass 1.0
  length 0.45
  angle deg
:documentation
   .ast/.asf automatically generated from VICON data using
   VICON BodyBuilder and BodyLanguage model FoxedUp or BRILLIANT.MOD
:root
   order TX TY TZ RX RY RZ
   axis XYZ
   position 0 0 0  
   orientation 0 0 0 
:bonedata
  begin
     id 1 
     name lhipjoint
     direction 0.627457 -0.725269 0.283342 
     length 2.53237 
     axis 0 0 0  XYZ
  end
  begin
     id 2 
     name lfemur
     direction 0.34202 -0.939693 0  
     length 7.32496  
     axis 0 0 20  XYZ
    dof rx ry rz
    limits (-160.0 20.0)
           (-70.0 70.0)
           (-60.0 70.0)
  end
  begin
     id 3 
     name ltibia
     direction 0.34202 -0.939693 0   
     length 7.69674   
     axis 0 0 20   XYZ
    dof rx
    limits (-10.0 170.0)
  end
  begin
     id 4 
     name lfoot
     direction 0.127289 -0.349722 0.928166   
     length 1.8612   
     axis -90 7.62852e-016 20   XYZ
    dof rx rz
    limits (-45.0 90.0)
           (-70.0 20.0)
  end
  begin
     id 5 
     name ltoes
     direction 1.53561e-011 -4.21864e-011 1   
     length 0.925608   
     axis -90 7.62852e-016 20   XYZ
    dof rx
    limits (-90.0 20.0)
  end
  begin
     id 6 
     name rhipjoint
     direction -0.609094 -0.738725 0.288599   
     length 2.48624  
     axis 0 0 0  XYZ 
  end
  begin
     id 7 
     name rfemur
     direction -0.34202 -0.939693 0   
     length 7.44259   
     axis 0 0 -20   XYZ
    dof rx ry rz
    limits (-160.0 20.0)
           (-70.0 70.0)
           (-70.0 60.0)
  end
  begin
     id 8 
     name rtibia
     direction -0.34202 -0.939693 0   
     length 7.7781   
     axis 0 0 -20   XYZ
    dof rx
    limits (-10.0 170.0)
 end
 begin
     id 9 
     name rfoot
     direction -0.107015 -0.294021 0.949789   
     length 2.14741  
     axis -90 -7.62852e-016 -20   XYZ
    dof rx rz
    limits (-45.0 90.0)
           (-20.0 70.0)
  end
  begin
     id 10 
     name rtoes
     direction -1.53497e-011 -4.21924e-011 1   
     length 1.0706   
     axis -90 -7.62852e-016 -20   XYZ
    dof rx
    limits (-90.0 20.0)
  end
  begin
     id 11 
     name lowerback
     direction -0.0142066 0.998112 -0.0597545   
     length 1.86627   
     axis 0 0 0   XYZ
    dof rx ry rz
    limits (-20.0 45.0)
           (-30.0 30.0)
           (-30.0 30.0)
  end
  begin
     id 12 
     name upperback
     direction 0.00547294 0.999744 0.0219437   
     length 1.86272   
     axis 0 0 0   XYZ
    dof rx ry rz
    limits (-20.0 45.0)
           (-30.0 30.0)
           (-30.0 30.0)
  end
  begin
     id 13 
     name thorax
     direction 0.0116162 0.998704 0.0495538   
     length 1.8703   
     axis 0 0 0   XYZ
    dof rx ry rz
    limits (-20.0 45.0)
           (-30.0 30.0)
           (-30.0 30.0)
  end
  begin
     id 14 
     name lowerneck
     direction -0.0106574 0.998739 0.0490586   
     length 1.8074   
     axis 0 0 0   XYZ
    dof rx ry rz
    limits (-20.0 45.0)
           (-30.0 30.0)
           (-30.0 30.0)
  end
  begin
     id 15 
     name upperneck
     direction 0.030527 0.976587 -0.212944   
     length 1.80681   
     axis 0 0 0   XYZ
    dof rx ry rz
    limits (-20.0 45.0)
           (-30.0 30.0)
           (-30.0 30.0)
  end
  begin
     id 16
     name head
     direction 0.00869225 0.997035 -0.0764531  
     length 1.8313  
     axis 0 0 0   XYZ
    dof rx ry rz
    limits (-20.0 45.0)
           (-30.0 30.0)
           (-30.0 30.0)
  end
  begin
     id 17 
     name lclavicle
     direction 0.915958 0.399447 0.0382386  
     length 3.78965  
     axis 0 0 0   XYZ
    dof ry rz
    limits (-20.0 10.0)
           (0.0 20.0)
  end
  begin
     id 18 
     name lhumerus
     direction 1 -4.48967e-011 3.19303e-027   
     length 4.78095   
     axis -180 -30 -90   XYZ
    dof rx ry rz
    limits (-60.0 90.0)
           (-90.0 90.0)
           (-90.0 90.0)
  end
  begin
     id 19
     name lradius
     direction 1 -4.48967e-011 -3.77974e-027   
     length 3.58615   
     axis -180 -30 -90   XYZ
    dof rx
    limits (-10.0 170.0)
  end
  begin
     id 20
     name lwrist
     direction 1 -4.48927e-011 1.2807e-027   
     length 1.79307   
     axis 1.91374e-015 90 90   XYZ
    dof ry
    limits (-180.0 0.0)
 end
  begin
     id 21 
     name lhand
     direction 1 -4.49036e-011 2.5614e-027   
     length 0.659812   
     axis -1.63439e-015 90 90   XYZ
    dof rx rz
    limits (-90.0 90.0)
           (-45.0 45.0)
  end
  begin
     id 22 
     name lfingers
     direction 1 -4.49052e-011 5.1228e-027   
     length 0.531957   
     axis -3.26879e-015 90 90   XYZ
    dof rx
    limits (0.0 90.0)
  end
  begin
     id 23
     name lthumb
     direction 0.707107 -6.35012e-011 0.707107   
     length 0.763787   
     axis -90 45 2.85299e-015   XYZ
    dof rx rz
    limits (-45.0 45.0)
           (-45.0 45.0)
  end
  begin
     id 24 
     name rclavicle
     direction -0.895351 0.435135 0.0948887   
     length 3.70497  
     axis 0 0 0   XYZ 
    dof ry rz
    limits (-10.0 20.0)
           (-20.0 0.0)
  end
  begin
     id 25 
     name rhumerus
     direction -1 -4.48971e-011 2.38946e-027  
     length 4.48913   
     axis -180 30 90   XYZ
    dof rx ry rz
    limits (-90.0 60.0)
           (-90.0 90.0)
           (-90.0 90.0)
  end
  begin
     id 26 
     name rradius
     direction -1 -4.4895e-011 4.38668e-027   
     length 3.7051   
     axis -180 30 90   XYZ
    dof rx
    limits (-10.0 170.0)
  end
  begin
     id 27 
     name rwrist
     direction -1 -4.49007e-011 1.2807e-027   
     length 1.85255   
     axis 1.91374e-015 -90 -90   XYZ
    dof ry
    limits (-180.0 0.0)
  end
  begin
     id 28
     name rhand
     direction -1 -4.48851e-011 2.5614e-027   
     length 0.449136   
     axis -1.63439e-015 -90 -90   XYZ
    dof rx rz
    limits (-90.0 90.0)
           (-45.0 45.0)
  end
  begin
     id 29
     name rfingers
     direction -1 -4.49128e-011 5.1228e-027   
     length 0.362105   
     axis -3.26879e-015 -90 -90   XYZ
    dof rx
    limits (0.0 90.0)
  end
  begin
     id 30
     name rthumb
     direction -0.707107 -6.34851e-011 0.707107   
     length 0.519912   
     axis -90 -45 -2.85299e-015   XYZ
    dof rx rz
    limits (-45.0 45.0)
           (-45.0 45.0)
  end
:hierarchy
  begin
    root lhipjoint rhipjoint lowerback
    lhipjoint lfemur
    lfemur ltibia
    ltibia lfoot
    lfoot ltoes
    rhipjoint rfemur
    rfemur rtibia
    rtibia rfoot
    rfoot rtoes
    lowerback upperback
    upperback thorax
    thorax lowerneck lclavicle rclavicle
    lowerneck upperneck
    upperneck head
    lclavicle lhumerus
    lhumerus lradius
    lradius lwrist
    lwrist lhand lthumb
    lhand lfingers
    rclavicle rhumerus
    rhumerus rradius
    rradius rwrist
    rwrist rhand rthumb
    rhand rfingers
  end

#!OML:ASF I:\Actors\actors\Patient Classification 2\Patient 1\Session 1\actor1.ASF
:FULLY-SPECIFIED
:DEGREES
1
root -0.60004 18.5336 5.99828 -2.63123 -1.70831 -2.58766
lowerback 7.89144 0.233254 2.06452
upperback -2.00432 0.532309 0.103668
thorax -6.51391 0.182225 -1.12382
lowerneck -10.672 -2.15086 -1.37479
upperneck 25.5162 -3.40226 2.41236
head 9.90987 -1.44528 0.681887
rclavicle 2.29348e-014 -6.36111e-015
rhumerus -49.3006 -11.352 -81.5509
rradius 42.1462
rwrist 16.5181
rhand -4.90523 -33.8675
rfingers 7.12502
rthumb 20.8845 -62.7634
lclavicle 2.29348e-014 -6.36111e-015
lhumerus -43.3377 6.85021 85.9999
lradius 37.9963
lwrist -3.70013
lhand -16.0807 -31.8609
lfingers 7.12502
lthumb 10.1223 -2.12434
rfemur 11.7642 -2.33894 15.6992
rtibia -1.11319e-014
rfoot -14.2424 -7.7256
rtoes -5.19858
lfemur -1.46942 -3.08277 -11.7709
ltibia 25.1124
lfoot -22.7279 9.17508
ltoes -56.6599
2
root -0.622433 18.5396 6.0039 -2.46229 -1.88403 -2.06592
lowerback 7.59643 0.34339 1.14442
upperback -2.00557 0.5771 0.0587802
thorax -6.35155 0.240805 -0.656791
lowerneck -10.7506 -2.1418 -1.40091
upperneck 25.5407 -3.38852 2.42931
head 9.93435 -1.43852 0.69302
rclavicle -7.41715e-015 1.78906e-015
rhumerus -49.2465 -11.3217 -81.615
rradius 41.9947
rwrist 15.8689
rhand -6.07465 -33.685
rfingers 7.12502
rthumb 19.7606 -62.7006
lclavicle -7.41715e-015 1.78906e-015
lhumerus -43.2839 6.69244 86.1246
lradius 38.0007
lwrist -3.53172
lhand -16.1238 -31.7816
lfingers 7.12502
lthumb 10.0807 -2.04306
rfemur 11.5303 -2.15874 15.2169
rtibia -2.22639e-014
rfoot -14.2288 -7.72902
rtoes -5.04469
lfemur -1.48174 -3.00812 -12.2857
ltibia 24.7634
lfoot -22.5862 9.36007
ltoes -56.6792
3
root -0.628273 18.5426 6.0042 -2.38089 -1.96884 -1.87364
lowerback 7.50895 0.374948 0.830576
upperback -2.01214 0.585599 0.0367557
thorax -6.31081 0.25689 -0.50373
lowerneck -10.8282 -2.13852 -1.45234
upperneck 25.6169 -3.40287 2.53506
head 9.98018 -1.43683 0.73632
rclavicle 5.51627e-015 -1.5704e-014
rhumerus -49.2557 -11.4612 -81.4768
rradius 41.8819
rwrist 16.1304
rhand -5.91973 -33.8231
rfingers 7.12502
rthumb 19.9095 -62.8232
lclavicle 5.51627e-015 -1.5704e-014
lhumerus -43.265 6.86483 86.0747
lradius 38.0321
lwrist -3.67399
lhand -16.0742 -31.6365
lfingers 7.12502
lthumb 10.1286 -1.90028
rfemur 11.4144 -2.07401 15.0345
rtibia -7.95139e-015
rfoot -14.2359 -7.74488
rtoes -4.98796
lfemur -1.51836 -3.00593 -12.4871
ltibia 24.6522
lfoot -22.5772 9.42598
ltoes -56.5625
4
root -0.625555 18.5439 6.00255 -2.33356 -1.97686 -1.82686
lowerback 7.5121 0.357918 0.78231
upperback -2.03161 0.558021 0.0338363
thorax -6.33396 0.244952 -0.476237
lowerneck -10.8485 -2.12512 -1.42243
upperneck 25.6394 -3.3852 2.51202
head 9.99081 -1.42809 0.725026
rclavicle -1.58779e-014 9.14409e-015
rhumerus -49.3038 -11.5216 -81.4305
rradius 41.9337
rwrist 16.5424
rhand -5.51119 -33.7951
rfingers 7.12502
rthumb 20.3022 -62.754
lclavicle -1.58779e-014 9.14409e-015
lhumerus -43.2847 7.39804 85.8697
lradius 38.0753
lwrist -4.17065
lhand -15.9163 -31.5439
lfingers 7.12502
lthumb 10.2809 -1.81515
rfemur 11.3524 -2.06697 14.9798
rtibia 3.81667e-014
rfoot -14.2169 -7.76416
rtoes -5.17458
lfemur -1.51966 -3.03847 -12.5501
ltibia 24.5393
lfoot -22.5343 9.46276
ltoes -56.4561
5
root -0.623132 18.5447 6.00048 -2.30023 -1.99281 -1.82937
lowerback 7.52247 0.337963 0.768365
upperback -2.04845 0.531563 0.0566154
thorax -6.35838 0.232789 -0.441371
lowerneck -10.856 -2.09896 -1.39252
upperneck 25.6587 -3.34089 2.45707
head 9.99657 -1.41077 0.705836
rclavicle -8.27441e-015 1.19271e-015
rhumerus -49.3275 -11.3833 -81.5885
rradius 42.1622
rwrist 16.6552
rhand -5.1126 -33.6124
rfingers 7.12502
rthumb 20.6852 -62.53
lclavicle -8.27441e-015 1.19271e-015
lhumerus -43.3052 7.40989 85.9206
lradius 38.1216
lwrist -4.112
lhand -15.8538 -31.3075
lfingers 7.12502
lthumb 10.3412 -1.58179
rfemur 11.3038 -2.05365 14.9809
rtibia -7.95139e-015
rfoot -14.2078 -7.77032
rtoes -5.22303
lfemur -1.54678 -3.03694 -12.5528
ltibia 24.5162
lfoot -22.5016 9.49052
ltoes -56.4682
6
root -0.621285 18.5452 5.99804 -2.27194 -2.03622 -1.88061
lowerback 7.52472 0.328906 0.803307
upperback -2.05517 0.525116 0.0909657
thorax -6.3669 0.228921 -0.42435
lowerneck -10.8867 -2.09249 -1.45693
upperneck 25.7264 -3.33753 2.52323
head 10.0293 -1.40716 0.740151
rclavicle 3.41661e-015 -4.17448e-015
rhumerus -49.3109 -11.188 -81.7837
rradius 42.1166
rwrist 15.8688
rhand -6.20601 -33.5325
rfingers 7.12502
rthumb 19.6343 -62.561
lclavicle 3.41661e-015 -4.17448e-015
lhumerus -43.3268 6.81025 86.2471
lradius 38.207
lwrist -3.4315
lhand -15.7782 -30.8947
lfingers 7.12502
lthumb 10.4141 -1.17264
rfemur 11.2568 -2.01519 15.0381
rtibia -1.27222e-014
rfoot -14.2241 -7.77056
rtoes -5.28323
lfemur -1.57806 -3.04582 -12.5052
ltibia 24.526
lfoot -22.5348 9.52369
ltoes -56.4879
7
root -0.620824 18.5455 5.99614 -2.25385 -2.06112 -1.90995
lowerback 7.53013 0.326553 0.80979
upperback -2.05634 0.524025 0.112841
thorax -6.3714 0.228567 -0.405051
lowerneck -10.9055 -2.09685 -1.47126
upperneck 25.7519 -3.33558 2.50124
head 10.042 -1.40979 0.734917
rclavicle -1.63997e-014 1.78906e-015
rhumerus -49.3304 -11.2167 -81.7671
rradius 42.0526
rwrist 15.8215
rhand -6.08679 -33.813
rfingers 7.12502
rthumb 19.7489 -62.8297
lclavicle -1.63997e-014 1.78906e-015
lhumerus -43.3208 6.44548 86.4615
lradius 38.2644
lwrist -3.0738
lhand -15.5643 -30.4898
lfingers 7.12502
lthumb 10.6204 -0.778197
rfemur 11.2239 -1.99368 15.074
rtibia 2.54444e-014
rfoot -14.2027 -7.77565
rtoes -5.42931
lfemur -1.60269 -3.0379 -12.476
ltibia 24.5385
lfoot -22.5612 9.55021
ltoes -56.5528
8
root -0.62085 18.5459 5.99473 -2.24632 -2.07764 -1.9168
lowerback 7.54798 0.325296 0.795444
upperback -2.05656 0.521622 0.121416
thorax -6.38208 0.228071 -0.387855
lowerneck -10.9413 -2.07868 -1.35467
upperneck 25.7616 -3.28473 2.31122
head 10.0455 -1.39613 0.653995
rclavicle 9.98893e-015 -4.37326e-015
rhumerus -49.3691 -11.4376 -81.5798
rradius 41.9217
rwrist 16.3018
rhand -5.44264 -33.9897
rfingers 7.12502
rthumb 20.3681 -62.9416
lclavicle 9.98893e-015 -4.37326e-015
lhumerus -43.2594 6.45278 86.4814
lradius 38.2238
lwrist -3.19202
lhand -15.2933 -30.2502
lfingers 7.12502
lthumb 10.8818 -0.552192
rfemur 11.2049 -1.97846 15.0843
rtibia -1.74931e-014
rfoot -14.1417 -7.78988
rtoes -5.53841
lfemur -1.61708 -3.00003 -12.4649
ltibia 24.5486
lfoot -22.5489 9.55532
ltoes -56.604
